<?xml version="1.0" encoding="utf-8"?>
<!-- Generator: Adobe Illustrator 16.0.0, SVG Export Plug-In . SVG Version: 6.00 Build 0)  -->
<!DOCTYPE svg PUBLIC "-//W3C//DTD SVG 1.1//EN" "http://www.w3.org/Graphics/SVG/1.1/DTD/svg11.dtd">
<svg version="1.1" id="Layer_1" xmlns="http://www.w3.org/2000/svg" xmlns:xlink="http://www.w3.org/1999/xlink" x="0px" y="0px"
	 width="208px" height="208px" viewBox="0 0 208 208" enable-background="new 0 0 208 208" xml:space="preserve">
<path fill="#F4F0EA" d="M169,0H39C17.469,0,0,17.469,0,39v130c0,21.531,17.469,39,39,39h130c21.531,0,39-17.469,39-39V39
	C208,17.469,190.531,0,169,0z M64.312,176.562H32l-0.188-96.75h32.312L64.312,176.562z M47.344,67.156h-0.188
	c-10.562,0-17.375-7.281-17.375-16.344c0-9.281,7.031-16.312,17.781-16.312s17.344,7.031,17.562,16.312
	C65.125,59.875,58.281,67.156,47.344,67.156z M176.344,176.562H143.75V124c0-12.719-3.375-21.375-14.75-21.375
	c-8.688,0-13.375,5.844-15.625,11.5c-0.844,2.031-1.062,4.812-1.062,7.656v54.781h-32.75l-0.188-96.75h32.75l0.188,13.656
	C116.5,87,123.469,77.844,140.156,77.844c20.688,0,36.156,13.5,36.156,42.531v56.188H176.344z"/>
</svg>
