<?xml version="1.0" encoding="utf-8"?>
<!-- Generator: Adobe Illustrator 16.0.0, SVG Export Plug-In . SVG Version: 6.00 Build 0)  -->
<!DOCTYPE svg PUBLIC "-//W3C//DTD SVG 1.1//EN" "http://www.w3.org/Graphics/SVG/1.1/DTD/svg11.dtd">
<svg version="1.1" id="Layer_1" xmlns="http://www.w3.org/2000/svg" xmlns:xlink="http://www.w3.org/1999/xlink" x="0px" y="0px"
	 width="960px" height="560px" viewBox="0 0 960 560" enable-background="new 0 0 960 560" xml:space="preserve">
<path fill="#F4F0EA" d="M608.412,0H351.586C268,0,200,68,200,151.586v256.831c0,83.582,68,151.582,151.586,151.582h256.831
	c83.582,0,151.582-68,151.582-151.582V151.586C759.999,68,691.999,0,608.412,0z M480,433.12
	c-84.433,0-153.121-68.688-153.121-153.121S395.567,126.879,480,126.879c84.432,0,153.12,68.688,153.12,153.121
	S564.432,433.12,480,433.12z M636.781,162.99c-24.951,0-45.245-20.294-45.245-45.245s20.294-45.25,45.245-45.25
	s45.25,20.298,45.25,45.25S661.732,162.99,636.781,162.99z"/>
<path fill="#F4F0EA" d="M480,159.708c-66.326,0-120.292,53.961-120.292,120.291c0,66.326,53.965,120.291,120.292,120.291
	c66.329,0,120.29-53.965,120.29-120.291C600.29,213.669,546.329,159.708,480,159.708z"/>
<path fill="#F4F0EA" d="M636.781,105.329c-6.845,0-12.416,5.571-12.416,12.416c0,6.844,5.571,12.416,12.416,12.416
	c6.849,0,12.42-5.567,12.42-12.416S643.63,105.329,636.781,105.329z"/>
</svg>
