<?xml version="1.0" encoding="utf-8"?>
<!-- Generator: Adobe Illustrator 16.0.0, SVG Export Plug-In . SVG Version: 6.00 Build 0)  -->
<!DOCTYPE svg PUBLIC "-//W3C//DTD SVG 1.1//EN" "http://www.w3.org/Graphics/SVG/1.1/DTD/svg11.dtd">
<svg version="1.1" id="Capa_1" xmlns="http://www.w3.org/2000/svg" xmlns:xlink="http://www.w3.org/1999/xlink" x="0px" y="0px"
	 width="960px" height="560px" viewBox="0 0 960 560" enable-background="new 0 0 960 560" xml:space="preserve">
<g>
	<g>
		<path fill="#F4F0EA" d="M479.965,5.829C325.37,5.829,200,131.688,200,286.949c0,124.18,80.22,229.529,191.52,266.734
			c14,2.59,19.11-6.09,19.11-13.545c0-6.686-0.245-24.36-0.385-47.811c-77.875,16.976-94.325-37.694-94.325-37.694
			c-12.705-32.48-31.08-41.125-31.08-41.125c-25.445-17.431,1.89-17.08,1.89-17.08c28.105,1.995,42.875,28.979,42.875,28.979
			c24.99,42.945,65.555,30.556,81.515,23.346c2.52-18.165,9.765-30.556,17.78-37.591c-62.16-7.104-127.541-31.22-127.541-138.915
			c0-30.695,10.92-55.79,28.84-75.46c-2.905-7.105-12.495-35.7,2.73-74.375c0,0,23.52-7.56,77,28.805
			c22.33-6.23,46.271-9.345,70.105-9.45c23.765,0.14,47.74,3.22,70.104,9.485c53.445-36.365,76.931-28.805,76.931-28.805
			c15.26,38.71,5.67,67.27,2.8,74.375c17.955,19.67,28.77,44.765,28.77,75.46c0,107.975-65.449,131.74-127.819,138.705
			c10.045,8.681,19.005,25.83,19.005,52.045c0,37.591-0.351,67.9-0.351,77.105c0,7.525,5.04,16.275,19.25,13.51
			C679.85,516.408,760,411.094,760,286.949C760,131.688,634.63,5.829,479.965,5.829z"/>
	</g>
</g>
</svg>
