<?xml version="1.0" encoding="utf-8"?>
<!-- Generator: Adobe Illustrator 16.0.0, SVG Export Plug-In . SVG Version: 6.00 Build 0)  -->
<!DOCTYPE svg PUBLIC "-//W3C//DTD SVG 1.1//EN" "http://www.w3.org/Graphics/SVG/1.1/DTD/svg11.dtd">
<svg version="1.1" id="Layer_1" xmlns="http://www.w3.org/2000/svg" xmlns:xlink="http://www.w3.org/1999/xlink" x="0px" y="0px"
	 width="682px" height="682px" viewBox="0 0 682 682" enable-background="new 0 0 682 682" xml:space="preserve">
<path fill="#F4F0EA" d="M630.807,170.216c-7.367-27.391-28.964-48.983-56.352-56.359c-50.032-13.69-250.169-13.69-250.169-13.69
	s-200.128,0-250.162,13.171c-26.86,7.368-48.983,29.491-56.351,56.878C4.606,220.246,4.606,324,4.606,324s0,104.278,13.167,153.784
	c7.375,27.387,28.964,48.979,56.355,56.355c50.556,13.693,250.166,13.693,250.166,13.693s200.129,0,250.161-13.172
	c27.392-7.371,48.984-28.963,56.359-56.35c13.163-50.033,13.163-153.784,13.163-153.784S644.504,220.246,630.807,170.216z
	 M260.567,419.852V228.148L426.99,324L260.567,419.852z"/>
</svg>
