<?xml version="1.0" encoding="utf-8"?>
<!-- Generator: Adobe Illustrator 22.0.1, SVG Export Plug-In . SVG Version: 6.00 Build 0)  -->
<svg version="1.1" id="Calque_1" xmlns="http://www.w3.org/2000/svg" xmlns:xlink="http://www.w3.org/1999/xlink" x="0px" y="0px"
	 viewBox="0 0 1366 768" style="enable-background:new 0 0 1366 768;" xml:space="preserve">
<style type="text/css">
	.st0{fill:#F3F1E9;}
</style>
<g>
	<g>
		<path class="st0" d="M666,411.4v-92.3l-16.5,0c-16.4,0-30.6,11.7-31.5,27c-0.7,10.4,4.7,20.2,14,25.9l4,2.4l-18.4,32
			c-1.8,3.1-5.3,5-9,5h-5.5l19.6-34c-9.5-7.3-15-18.3-14.9-30c0.2-21.2,19.3-38,42-38h26.7v92.3C676.3,407.1,671.7,411.4,666,411.4
			L666,411.4z"/>
		<path class="st0" d="M695.3,411.4v-92.3l16.5,0c16.4,0,30.6,11.7,31.5,27c0.7,10.4-4.7,20.2-14,25.9l-4,2.4l18.4,32
			c1.8,3.1,5.3,5,9,5h5.5l-19.6-34c9.5-7.3,15-18.3,14.9-30c-0.2-21.2-19.3-38-42-38h-26.7v92.3
			C685.1,407.1,689.7,411.4,695.3,411.4L695.3,411.4z"/>
	</g>
	<g>
		<g>
			<path class="st0" d="M599.3,457.7c-2-0.6-3.6-1.4-4.8-2.4l1.8-4c1.1,0.9,2.5,1.6,4.2,2.2c1.7,0.6,3.3,0.9,5,0.9
				c2.1,0,3.6-0.3,4.6-1c1-0.7,1.5-1.5,1.5-2.6c0-0.8-0.3-1.5-0.9-2c-0.6-0.5-1.3-0.9-2.2-1.2c-0.9-0.3-2.1-0.6-3.6-1
				c-2.1-0.5-3.9-1-5.2-1.5c-1.3-0.5-2.4-1.3-3.4-2.4c-0.9-1.1-1.4-2.5-1.4-4.4c0-1.5,0.4-2.9,1.3-4.2c0.8-1.3,2.1-2.3,3.8-3
				c1.7-0.7,3.8-1.1,6.2-1.1c1.7,0,3.4,0.2,5,0.6c1.6,0.4,3.1,1,4.3,1.8l-1.6,4c-1.2-0.7-2.5-1.3-3.8-1.6c-1.3-0.4-2.6-0.6-3.9-0.6
				c-2,0-3.6,0.3-4.6,1c-1,0.7-1.5,1.6-1.5,2.8c0,0.8,0.3,1.4,0.9,2c0.6,0.5,1.3,0.9,2.2,1.2c0.9,0.3,2.1,0.6,3.6,1
				c2.1,0.5,3.8,1,5.1,1.5c1.3,0.5,2.5,1.3,3.4,2.4c0.9,1.1,1.4,2.5,1.4,4.3c0,1.5-0.4,2.9-1.3,4.2c-0.8,1.3-2.1,2.2-3.8,3
				c-1.7,0.7-3.8,1.1-6.2,1.1C603.4,458.6,601.3,458.3,599.3,457.7z"/>
			<path class="st0" d="M627.2,456.7c-2.3-1.2-4.1-2.9-5.3-5.1c-1.3-2.2-1.9-4.6-1.9-7.4c0-2.7,0.7-5.2,2-7.4
				c1.3-2.2,3.1-3.9,5.4-5.1c2.3-1.2,4.8-1.9,7.6-1.9c2.3,0,4.4,0.4,6.3,1.2c1.9,0.8,3.5,2,4.8,3.5l-3.4,3.2c-2-2.2-4.5-3.3-7.5-3.3
				c-1.9,0-3.6,0.4-5.1,1.3c-1.5,0.8-2.7,2-3.6,3.5c-0.9,1.5-1.3,3.2-1.3,5.1c0,1.9,0.4,3.6,1.3,5.1c0.9,1.5,2,2.7,3.6,3.5
				c1.5,0.8,3.2,1.3,5.1,1.3c3,0,5.4-1.1,7.5-3.3l3.4,3.2c-1.3,1.5-2.9,2.7-4.8,3.5c-1.9,0.8-4,1.2-6.3,1.2
				C632.1,458.6,629.5,458,627.2,456.7z"/>
			<path class="st0" d="M675.8,430.3v27.9h-5.2v-12h-14.4v12h-5.2v-27.9h5.2v11.5h14.4v-11.5H675.8z"/>
			<path class="st0" d="M688.6,456.7c-2.3-1.2-4.1-3-5.4-5.1c-1.3-2.2-2-4.6-2-7.4c0-2.7,0.7-5.2,2-7.4c1.3-2.2,3.1-3.9,5.4-5.1
				c2.3-1.2,4.9-1.9,7.7-1.9c2.8,0,5.4,0.6,7.7,1.9c2.3,1.2,4.1,2.9,5.4,5.1c1.3,2.2,2,4.6,2,7.4c0,2.7-0.7,5.2-2,7.4
				c-1.3,2.2-3.1,3.9-5.4,5.1c-2.3,1.2-4.9,1.9-7.7,1.9C693.5,458.6,690.9,458,688.6,456.7z M701.3,452.8c1.5-0.8,2.7-2,3.5-3.5
				c0.9-1.5,1.3-3.2,1.3-5c0-1.9-0.4-3.5-1.3-5c-0.9-1.5-2-2.7-3.5-3.5c-1.5-0.8-3.2-1.3-5-1.3c-1.9,0-3.5,0.4-5,1.3
				c-1.5,0.8-2.7,2-3.5,3.5c-0.9,1.5-1.3,3.2-1.3,5c0,1.9,0.4,3.5,1.3,5c0.9,1.5,2,2.7,3.5,3.5c1.5,0.8,3.2,1.3,5,1.3
				C698.2,454.1,699.8,453.6,701.3,452.8z"/>
			<path class="st0" d="M722.2,456.7c-2.3-1.2-4.1-3-5.4-5.1c-1.3-2.2-2-4.6-2-7.4c0-2.7,0.7-5.2,2-7.4c1.3-2.2,3.1-3.9,5.4-5.1
				c2.3-1.2,4.9-1.9,7.7-1.9s5.4,0.6,7.7,1.9c2.3,1.2,4.1,2.9,5.4,5.1c1.3,2.2,2,4.6,2,7.4c0,2.7-0.7,5.2-2,7.4
				c-1.3,2.2-3.1,3.9-5.4,5.1c-2.3,1.2-4.9,1.9-7.7,1.9S724.5,458,722.2,456.7z M734.9,452.8c1.5-0.8,2.7-2,3.5-3.5
				c0.9-1.5,1.3-3.2,1.3-5c0-1.9-0.4-3.5-1.3-5c-0.9-1.5-2-2.7-3.5-3.5c-1.5-0.8-3.2-1.3-5-1.3c-1.9,0-3.5,0.4-5,1.3
				c-1.5,0.8-2.7,2-3.5,3.5c-0.9,1.5-1.3,3.2-1.3,5c0,1.9,0.4,3.5,1.3,5c0.9,1.5,2,2.7,3.5,3.5c1.5,0.8,3.2,1.3,5,1.3
				C731.7,454.1,733.4,453.6,734.9,452.8z"/>
			<path class="st0" d="M750.4,430.3h5.2v23.5h14.6v4.4h-19.8V430.3z"/>
		</g>
		<polygon class="st0" points="770.2,430.3 769.5,430.3 767.6,433.4 765.8,430.3 765.2,430.3 765,430.3 760.4,430.3 760.4,431 
			761.9,431 761.9,435 762.8,435 762.8,431 765,431 765,435 765.9,435 765.9,431.9 767.4,434.5 767.8,434.5 769.4,431.9 769.4,435 
			770.2,435 		"/>
	</g>
</g>
</svg>
