<?xml version="1.0" encoding="utf-8"?>
<!-- Generator: Adobe Illustrator 22.0.1, SVG Export Plug-In . SVG Version: 6.00 Build 0)  -->
<svg version="1.1" id="Calque_1" xmlns="http://www.w3.org/2000/svg" xmlns:xlink="http://www.w3.org/1999/xlink" x="0px" y="0px"
	 viewBox="0 0 285.9 233" style="enable-background:new 0 0 285.9 233;" xml:space="preserve">
<style type="text/css">
	.st0{fill:#221D51;}
</style>
<g>
	<g>
		<path class="st0" d="M123.9,153.1V34.5h-21.3c-21,0-39.3,15-40.5,34.6c-0.9,13.3,6,25.9,18,33.3l5.1,3l-23.6,41.1
			c-2.3,4-6.8,6.4-11.5,6.4h-7.1l25.2-43.7C56.1,100,49,85.8,49.1,70.8c0.3-27.2,24.8-48.8,54-48.8h34.3v118.6
			C137.2,147.6,131.2,153.1,123.9,153.1L123.9,153.1z"/>
		<path class="st0" d="M161.6,153.1V34.5h21.3c21,0,39.3,15,40.5,34.6c0.9,13.3-6,25.9-18,33.3l-5.1,3l23.6,41.1
			c2.3,4,6.8,6.4,11.5,6.4h7.1l-25.2-43.7c12.2-9.4,19.3-23.5,19.1-38.5c-0.3-27.2-24.8-48.8-54-48.8h-34.4v118.6
			C148.5,147.6,154.4,153.1,161.6,153.1L161.6,153.1z"/>
	</g>
	<g>
		<g>
			<path class="st0" d="M38.2,212.7c-2.6-0.8-4.7-1.8-6.2-3l2.3-5.1c1.4,1.1,3.2,2.1,5.4,2.8c2.2,0.8,4.3,1.1,6.4,1.1
				c2.7,0,4.7-0.4,5.9-1.3c1.3-0.9,1.9-1.9,1.9-3.3c0-1.1-0.4-1.9-1.1-2.6s-1.7-1.1-2.8-1.5c-1.1-0.4-2.7-0.8-4.7-1.3
				c-2.7-0.6-5-1.3-6.7-1.9c-1.7-0.6-3-1.7-4.4-3c-1.1-1.4-1.8-3.2-1.8-5.6c0-1.9,0.5-3.7,1.7-5.4c1.1-1.7,2.7-2.9,4.9-3.8
				c2.2-0.9,4.9-1.4,8-1.4c2.2,0,4.4,0.3,6.4,0.8c2.1,0.5,4,1.3,5.5,2.3l-2.1,5.1c-1.5-0.9-3.2-1.7-4.9-2.1c-1.7-0.5-3.3-0.8-5-0.8
				c-2.6,0-4.7,0.4-5.9,1.3c-1.3,0.9-1.9,2.1-1.9,3.6c0,1.1,0.4,1.8,1.1,2.6c0.8,0.6,1.7,1.1,2.8,1.5c1.1,0.4,2.7,0.8,4.7,1.3
				c2.7,0.6,4.9,1.3,6.6,1.9c1.7,0.6,3.2,1.7,4.4,3c1.2,1.3,1.8,3.2,1.8,5.5c0,1.9-0.5,3.7-1.7,5.4c-1.1,1.7-2.7,2.8-4.9,3.8
				c-2.2,0.9-4.9,1.4-8,1.4C43.5,213.8,40.8,213.4,38.2,212.7z"/>
			<path class="st0" d="M74.1,211.3c-2.9-1.5-5.2-3.7-6.8-6.6c-1.7-2.8-2.5-5.9-2.5-9.5c0-3.5,0.9-6.7,2.6-9.5c1.7-2.8,4-5,6.9-6.6
				c2.9-1.5,6.2-2.5,9.8-2.5c2.9,0,5.6,0.5,8.1,1.5c2.5,1.1,4.5,2.6,6.2,4.5l-4.4,4.1c-2.6-2.8-5.8-4.3-9.6-4.3
				c-2.5,0-4.7,0.5-6.6,1.7c-1.9,1.1-3.5,2.6-4.7,4.5c-1.2,1.9-1.7,4.1-1.7,6.6s0.5,4.7,1.7,6.6s2.6,3.5,4.7,4.5
				c1.9,1.1,4.1,1.7,6.6,1.7c3.8,0,6.9-1.4,9.6-4.3l4.4,4.1c-1.7,1.9-3.7,3.5-6.2,4.5c-2.5,1.1-5.1,1.5-8.1,1.5
				C80.4,213.8,77.1,213,74.1,211.3z"/>
			<path class="st0" d="M136.6,177.4v35.8h-6.7v-15.4h-18.5v15.4h-6.7v-35.8h6.7v14.7h18.5v-14.7L136.6,177.4L136.6,177.4z"/>
			<path class="st0" d="M153,211.3c-2.9-1.5-5.2-3.8-6.9-6.6c-1.7-2.8-2.6-5.9-2.6-9.5c0-3.5,0.9-6.7,2.6-9.5c1.7-2.8,4-5,6.9-6.6
				c2.9-1.5,6.3-2.5,9.9-2.5c3.6,0,6.9,0.8,9.9,2.5c2.9,1.5,5.2,3.7,6.9,6.6c1.7,2.8,2.6,5.9,2.6,9.5c0,3.5-0.9,6.7-2.6,9.5
				c-1.7,2.8-4,5-6.9,6.6c-2.9,1.5-6.3,2.5-9.9,2.5S155.9,213,153,211.3z M169.4,206.3c1.9-1.1,3.5-2.6,4.5-4.5
				c1.1-1.9,1.7-4.1,1.7-6.4c0-2.5-0.5-4.5-1.7-6.4c-1.2-2-2.6-3.5-4.5-4.5c-1.9-1.1-4.1-1.7-6.4-1.7c-2.5,0-4.5,0.5-6.4,1.7
				c-1.9,1.1-3.5,2.6-4.5,4.5c-1.1,1.9-1.7,4.1-1.7,6.4c0,2.5,0.5,4.5,1.7,6.4c1.1,1.9,2.6,3.5,4.5,4.5c1.9,1.1,4.1,1.7,6.4,1.7
				C165.3,208,167.4,207.3,169.4,206.3z"/>
			<path class="st0" d="M196.2,211.3c-2.9-1.5-5.2-3.8-6.9-6.6c-1.7-2.8-2.6-5.9-2.6-9.5c0-3.5,0.9-6.7,2.6-9.5c1.7-2.8,4-5,6.9-6.6
				c3-1.6,6.3-2.5,9.9-2.5c3.6,0,6.9,0.8,9.9,2.5c2.9,1.5,5.2,3.7,6.9,6.6c1.7,2.8,2.6,5.9,2.6,9.5c0,3.5-0.9,6.7-2.6,9.5
				c-1.7,2.8-4,5-6.9,6.6c-2.9,1.5-6.3,2.5-9.9,2.5C202.4,213.8,199.1,213,196.2,211.3z M212.4,206.3c1.9-1.1,3.5-2.6,4.5-4.5
				c1.1-1.9,1.7-4.1,1.7-6.4c0-2.5-0.5-4.5-1.7-6.4c-1.1-1.9-2.6-3.5-4.5-4.5c-1.9-1.1-4.1-1.7-6.4-1.7c-2.5,0-4.5,0.5-6.4,1.7
				c-1.9,1.1-3.5,2.6-4.5,4.5c-1.1,1.9-1.7,4.1-1.7,6.4c0,2.5,0.5,4.5,1.7,6.4c1.2,2,2.6,3.5,4.5,4.5s4.1,1.7,6.4,1.7
				C208.4,208,210.5,207.3,212.4,206.3z"/>
			<path class="st0" d="M232.3,177.4h6.7v30.2h18.8v5.6h-25.4V177.4L232.3,177.4z"/>
		</g>
		<polygon class="st0" points="257.8,177.4 256.9,177.4 254.4,181.4 252.2,177.4 251.4,177.4 251.1,177.4 245.2,177.4 245.2,178.4 
			247.1,178.4 247.1,183.5 248.4,183.5 248.4,178.4 251.1,178.4 251.1,183.5 252.3,183.5 252.3,179.5 254.2,182.8 254.7,182.8 
			256.8,179.5 256.8,183.5 257.8,183.5 		"/>
	</g>
</g>
</svg>
